<svg width="666" height="477" viewBox="0 0 666 477" fill="none" xmlns="http://www.w3.org/2000/svg">
<path d="M48.8928 28.4148H35.6552C23.5758 28.4148 20.7628 30.8968 18.6117 54.3937L14.4749 54.0628L16.957 25.9327L17.2879 22.6233H101.016L101.347 25.9327L103.829 54.0628L99.6924 54.3937C97.5413 30.8968 94.5628 28.4148 82.4834 28.4148H69.4112C66.1018 28.4148 64.2816 30.235 64.2816 33.5444V139.115C64.2816 149.209 65.6054 151.525 81.4906 151.525V155H36.8135V151.525C52.6987 151.525 54.0224 149.209 54.0224 139.115V33.5444C54.0224 30.235 52.2022 28.4148 48.8928 28.4148ZM191.368 22.6233L191.699 25.9327L194.678 54.0628L190.541 54.3937C188.059 30.8968 185.246 28.4148 173.167 28.4148H145.037C140.403 28.4148 137.921 30.8968 137.921 35.3646V83.1856H163.073C173.001 83.1856 175.318 81.6964 175.318 64.322H178.793V107.344H175.318C175.318 89.8045 173.001 88.3152 163.073 88.3152H137.921V139.777C137.921 147.554 139.245 149.209 145.698 149.209H173.167C185.577 149.209 189.217 145.734 196.333 120.417L200.635 121.575L192.03 151.856L191.203 155H110.619V151.525C126.338 151.525 127.828 149.209 127.828 139.115V38.5085C127.828 28.4148 126.338 26.0982 110.619 26.0982V22.6233H191.368ZM246.795 157.648C237.363 157.648 228.593 153.014 222.305 146.23C219.327 143.086 217.672 143.086 216.844 147.388L215.521 155.165H211.88L212.046 107.344H215.686C216.844 133.985 229.586 152.022 246.795 152.022C262.514 152.022 269.133 139.115 269.133 127.863C269.133 110.985 255.896 100.726 241.996 90.1354C226.938 78.7179 212.873 67.7969 212.873 49.0986C212.873 31.5587 225.118 19.9758 242.823 19.9758C251.262 19.9758 257.55 22.4578 263.673 28.4148C266.32 30.8968 268.637 30.235 268.968 26.7601L269.63 21.6305H273.105L275.256 64.6529H271.781C269.63 42.3143 260.529 25.6018 242.823 25.6018C229.42 25.6018 222.14 35.53 222.14 47.113C222.14 61.8399 233.392 71.1063 247.457 81.6964C263.176 93.4448 278.234 105.028 278.234 125.712C278.234 143.748 265.989 157.648 246.795 157.648ZM318.914 28.4148H305.676C293.597 28.4148 290.784 30.8968 288.633 54.3937L284.496 54.0628L286.978 25.9327L287.309 22.6233H371.037L371.368 25.9327L373.85 54.0628L369.714 54.3937C367.563 30.8968 364.584 28.4148 352.505 28.4148H339.433C336.123 28.4148 334.303 30.235 334.303 33.5444V139.115C334.303 149.209 335.627 151.525 351.512 151.525V155H306.835V151.525C322.72 151.525 324.044 149.209 324.044 139.115V33.5444C324.044 30.235 322.224 28.4148 318.914 28.4148Z" fill="black"/>
<path d="M299.576 254.589V297.115C299.576 307.209 301.066 309.525 316.951 309.525V313H272.274V309.525C287.993 309.525 289.483 307.209 289.483 297.115V254.755L259.698 194.854C255.065 185.588 251.425 184.099 242.158 184.099V180.624H283.36V184.099C265.655 184.099 266.648 185.754 271.116 194.854L296.598 246.812H297.094L320.426 195.02C324.562 185.919 325.555 184.099 309.67 184.099V180.624H343.757V184.099C334.325 184.099 330.85 185.754 326.713 195.02L299.576 254.589ZM386.093 315.648C357.466 315.648 337.941 284.87 337.941 246.812C337.941 208.754 356.474 177.976 385.927 177.976C414.388 177.976 433.748 208.919 433.748 246.812C433.748 285.036 415.546 315.648 386.093 315.648ZM389.071 309.856C410.582 309.856 423.323 284.705 423.323 256.078C423.323 221.661 408.762 183.768 382.783 183.768C361.438 183.768 348.531 208.919 348.531 237.38C348.531 272.129 362.761 309.856 389.071 309.856ZM495.922 315.648C463.821 315.648 455.051 293.971 455.051 271.798V196.509C455.051 186.415 453.562 184.099 437.842 184.099V180.624H482.519V184.099C466.634 184.099 465.145 186.415 465.145 196.509V271.798C465.145 297.777 476.397 309.36 497.411 309.36C516.275 309.36 528.189 297.446 528.189 271.632V196.509C528.189 186.415 526.699 184.099 510.98 184.099V180.624H551.355V184.099C535.469 184.099 533.98 186.415 533.98 196.509V271.632C533.98 292.978 525.872 315.648 495.922 315.648ZM614.112 261.539L631.651 295.129C637.112 305.223 639.428 309.36 652.17 309.36V313H647.867C630.162 313 627.846 310.518 620.896 296.618L597.068 249.956H594.09C589.953 249.956 586.313 249.625 582.838 249.129V297.115C582.838 307.209 584.327 309.525 600.047 309.525V313H555.535V309.525C571.255 309.525 572.744 307.209 572.744 297.115V196.509C572.744 186.415 571.255 184.099 555.535 184.099V180.624H599.219C625.198 180.624 637.774 193.2 637.774 213.718C637.774 234.733 624.371 245.985 605.176 249.129C608.155 250.949 610.471 254.093 614.112 261.539ZM582.838 192.538V243.337C586.478 244.164 590.449 244.495 594.752 244.495C613.946 244.495 627.018 235.56 627.018 214.876C627.018 196.344 616.428 186.25 597.73 186.25C593.759 186.25 589.787 186.746 585.982 187.905C583.831 188.732 582.838 190.387 582.838 192.538Z" fill="black"/>
<path d="M12.9067 474L13.8995 470.525C26.4752 470.525 29.6191 468.539 32.5976 458.777L64.8642 353.041C65.8571 349.732 64.8642 347.415 60.7275 347.415H49.1446C36.8998 347.415 35.2451 349.897 26.6407 369.754H22.173L32.2667 341.624H115.333L108.714 369.754H104.081C107.886 351.387 107.225 347.415 95.1453 347.415H82.2386C77.9364 347.415 75.9507 349.732 74.7924 353.041L42.5258 458.777C39.5473 468.539 39.2164 470.525 55.1015 470.525L53.9432 474H12.9067ZM152.665 415.589L139.428 458.777C136.449 468.539 135.953 470.525 151.838 470.525L150.68 474H109.809L110.802 470.525C123.377 470.525 126.521 468.539 129.5 458.777L142.737 415.755L131.982 357.178C130.162 347.085 127.514 345.099 118.413 345.099L119.406 341.624H156.14L154.982 345.099C141.083 345.099 140.586 347.25 142.241 357.178L151.011 407.812H151.838L191.551 354.365C197.508 346.257 199.659 345.099 183.277 345.099L184.436 341.624H218.688L217.695 345.099C210.58 345.099 204.954 345.926 198.666 354.365L152.665 415.589ZM180.146 474L181.305 470.525C193.715 470.525 196.859 468.539 199.837 458.777L231.111 356.847C234.09 347.085 234.586 345.099 219.694 345.099L220.687 341.624H259.407C279.263 341.624 292.335 349.401 292.335 368.43C292.335 390.438 274.299 415.589 242.694 415.589C235.744 415.589 228.795 414.431 223.83 412.611L209.766 458.777C206.787 468.539 206.456 470.525 223.169 470.525L222.01 474H180.146ZM242.529 409.963C269.831 409.963 282.076 386.135 282.076 367.768C282.076 353.372 273.471 346.919 258.248 346.919C247.162 346.919 243.521 348.408 242.198 352.876L225.651 406.819C230.118 408.308 236.406 409.963 242.529 409.963ZM286.451 458.777L317.724 356.847C320.703 347.085 321.199 345.099 306.307 345.099L307.3 341.624H347.178L346.185 345.099C333.775 345.099 330.797 347.085 327.818 356.847L296.544 458.777C293.566 468.539 293.069 470.525 307.962 470.525L306.803 474H266.76L267.918 470.525C280.328 470.525 283.472 468.539 286.451 458.777ZM466.43 341.624L465.437 345.099C452.862 345.099 449.718 347.085 446.905 356.847L410.336 476.317H404.213L372.112 361.48L342.824 458.777C339.846 468.539 339.515 470.525 356.062 470.525L354.903 474H317.176L318.335 470.525C330.745 470.525 333.889 468.539 336.867 458.777L369.134 352.049C366.652 346.257 363.673 345.099 357.551 345.099L358.378 341.624H377.242L409.012 456.46H410.336L440.782 356.847C443.761 347.085 444.092 345.099 427.545 345.099L428.703 341.624H466.43ZM521.576 345.099C490.798 345.099 461.51 390.934 461.51 431.474C461.51 454.475 471.273 470.691 494.108 470.691C504.036 470.691 514.626 466.554 522.238 458.28L531.669 424.359C534.317 414.762 534.482 410.625 503.374 410.625L504.532 407.15H553.677L553.015 410.625C547.72 410.625 544.741 412.114 541.928 422.042L530.677 461.59C518.928 472.014 505.691 476.648 492.287 476.648C462.668 476.648 450.424 457.122 450.424 430.481C450.424 388.783 483.352 339.307 521.907 339.307C535.31 339.307 542.921 344.933 547.224 352.049C548.216 353.869 549.375 353.869 550.202 351.718L554.67 340.466L557.979 341.128L546.065 386.301H542.59C545.9 362.97 542.59 345.099 521.576 345.099Z" fill="black"/>
<path d="M62.2776 257.176L59.6516 282.385L84.8606 275.295L86.6988 287.374L62.5402 289.344L78.1645 310.088L66.873 316.259L55.7127 293.282L45.6029 316.259L33.9175 310.088L49.2792 289.344L25.3832 287.374L27.2213 275.295L52.1677 282.385L49.4105 257.176H62.2776ZM62.2776 190.214L59.6516 215.423L84.8606 208.333L86.6988 220.413L62.5402 222.382L78.1645 243.127L66.873 249.298L55.7127 226.321L45.6029 249.298L33.9175 243.127L49.2792 222.382L25.3832 220.413L27.2213 208.333L52.1677 215.423L49.4105 190.214H62.2776Z" fill="black"/>
<path d="M635.278 409.176L632.652 434.385L657.861 427.295L659.699 439.374L635.54 441.344L651.165 462.088L639.873 468.259L628.713 445.282L618.603 468.259L606.917 462.088L622.279 441.344L598.383 439.374L600.221 427.295L625.168 434.385L622.41 409.176H635.278ZM635.278 342.214L632.652 367.423L657.861 360.333L659.699 372.413L635.54 374.382L651.165 395.127L639.873 401.298L628.713 378.321L618.603 401.298L606.917 395.127L622.279 374.382L598.383 372.413L600.221 360.333L625.168 367.423L622.41 342.214H635.278Z" fill="black"/>
<path d="M563.278 89.1758L560.652 114.385L585.861 107.295L587.699 119.374L563.54 121.344L579.165 142.088L567.873 148.259L556.713 125.282L546.603 148.259L534.917 142.088L550.279 121.344L526.383 119.374L528.221 107.295L553.168 114.385L550.41 89.1758H563.278ZM563.278 22.2144L560.652 47.4234L585.861 40.3334L587.699 52.4127L563.54 54.3821L579.165 75.127L567.873 81.298L556.713 58.321L546.603 81.298L534.917 75.127L550.279 54.3821L526.383 52.4127L528.221 40.3334L553.168 47.4234L550.41 22.2144H563.278ZM635.593 89.1758L632.967 114.385L658.176 107.295L660.015 119.374L635.856 121.344L651.48 142.088L640.189 148.259L629.029 125.282L618.919 148.259L607.233 142.088L622.595 121.344L598.699 119.374L600.537 107.295L625.484 114.385L622.726 89.1758H635.593ZM635.593 22.2144L632.967 47.4234L658.176 40.3334L660.015 52.4127L635.856 54.3821L651.48 75.127L640.189 81.298L629.029 58.321L618.919 81.298L607.233 75.127L622.595 54.3821L598.699 52.4127L600.537 40.3334L625.484 47.4234L622.726 22.2144H635.593Z" fill="black"/>
</svg>
